<?xml version="1.0" encoding="utf-8"?>
<!-- Generator: Adobe Illustrator 23.1.0, SVG Export Plug-In . SVG Version: 6.00 Build 0)  -->
<svg version="1.1" id="Capa_1" xmlns="http://www.w3.org/2000/svg" xmlns:xlink="http://www.w3.org/1999/xlink" x="0px" y="0px"
	 viewBox="0 0 87.4 87.4" style="enable-background:new 0 0 87.4 87.4;" xml:space="preserve">
<style type="text/css">
	.st0{fill:#3CC094;}
</style>
<g>
	<path class="st0" d="M12.7,7.6l-4-4L12.2,0l4,4L12.7,7.6z M20.2,8l-3.5,3.5l4.8,4.8l3.6-3.5L20.2,8z M73.7,28.1v9.4L53.8,11.7
		L40,28l-12-12.1l-3.6,3.5l15.9,16l13.4-15.7l15.9,20.7l-7.4-2.8l-1.8,4.7l18.3,7v-21H73.7z M59.5,47.7H53c-1.1,0-2,0.9-2,2v35.7
		c0,1.1,0.9,2,2,2h6.5c1.1,0,2-0.9,2-2V49.7C61.5,48.6,60.6,47.7,59.5,47.7z M38.2,57.7h-6.5c-1.1,0-2,0.9-2,2v25.7c0,1.1,0.9,2,2,2
		h6.5c1.1,0,2-0.9,2-2V59.7C40.2,58.6,39.3,57.7,38.2,57.7z M17.2,28h-6.5c-1.1,0-2,0.9-2,2v55.3c0,1.1,0.9,2,2,2h6.5
		c1.1,0,2-0.9,2-2V30C19.2,28.9,18.3,28,17.2,28z"/>
</g>
</svg>
