<?xml version="1.0" encoding="utf-8"?>
<!-- Generator: Adobe Illustrator 23.1.0, SVG Export Plug-In . SVG Version: 6.00 Build 0)  -->
<svg version="1.1"
	 id="Layer_1" xmlns:cc="http://creativecommons.org/ns#" xmlns:dc="http://purl.org/dc/elements/1.1/" xmlns:rdf="http://www.w3.org/1999/02/22-rdf-syntax-ns#" xmlns:svg="http://www.w3.org/2000/svg"
	 xmlns="http://www.w3.org/2000/svg" xmlns:xlink="http://www.w3.org/1999/xlink" x="0px" y="0px" viewBox="0 0 128 128"
	 style="enable-background:new 0 0 128 128;" xml:space="preserve">
<style type="text/css">
	.st0{fill:#3CC094;}
</style>
<title>Bezier Icon</title>
<desc>This is shape (source) for Clarity vector icon theme for gtk</desc>
<path class="st0" d="M80.9,15.1v2v12.7l-21,21c-1.1-0.6-2.4-1.1-3.8-1.1c-4.3,0-7.8,3.5-7.8,7.8c0,1.4,0.4,2.7,1.1,3.8l-21,21H15.7
	h-2v2V98v2h2h13.5h2v-2V85.3l19.4-19.4c-7.5,14.5-6.9,32.6,3,46.9l3.3-2.3c-9.7-13.9-9.6-31.7-1.3-45.3c0.2,0,0.3,0.1,0.5,0.1
	c4.3,0,7.8-3.5,7.8-7.8c0-0.6-0.2-1.3-0.3-1.8c1.2-1,2.5-2,3.8-3c13.4-9.3,31-9.9,45-1.6l2-3.5c-7.7-4.6-16.3-6.7-24.8-6.4
	c-6.8,0.2-13.4,2-19.6,5.2l13.8-13.8h12.7h2v-2V17.2v-2h-2H82.9L80.9,15.1z M85,19.2h9.5v9.5H85V19.2z M17.7,86.5h9.5v9.5h-9.5V86.5
	z"/>
</svg>
