<?xml version="1.0" encoding="utf-8"?>
<!-- Generator: Adobe Illustrator 23.1.0, SVG Export Plug-In . SVG Version: 6.00 Build 0)  -->
<svg version="1.1" id="Layer_1" xmlns="http://www.w3.org/2000/svg" xmlns:xlink="http://www.w3.org/1999/xlink" x="0px" y="0px"
	 viewBox="0 0 595.3 841.9" style="enable-background:new 0 0 595.3 841.9;" xml:space="preserve">
<style type="text/css">
	.st0{fill:#45BC93;}
</style>
<line class="st0" x1="398.7" y1="645.1" x2="381.2" y2="627.9"/>
<polygon class="st0" points="63.8,645.1 81,645.1 375.4,645.1 398.7,645.1 381.2,627.9 357.9,627.9 81,627.9 63.8,627.9 "/>
<g>
	<path class="st0" d="M91.3,342.1L384.7,52.9l13.8-13.6l0.1-0.1h-23.3L81,330.1v-291H63.8v606H81V355.9l276.9,272l17.5,17.2h23.3
		l-17.4-17.2L91.3,342.1z"/>
	<path class="st0" d="M506.2,422.9H524c-6-15.6-14.6-30.1-26-43.4c-24.1-28.4-54.2-46.1-90.4-52.9c32.1-6.9,59-22.4,80.5-46.5
		c21.5-24.1,32.3-56.2,32.3-96.4c0-44.2-14.6-79.9-43.9-107.2c-23.2-21.6-56.1-34.6-98.8-39.1v17.3c36.9,4.2,65.6,15.3,85.9,33.4
		c26.4,23.5,39.6,55.4,39.6,95.6c0,41.9-13.3,74.8-40,98.6c-21.1,18.8-49.6,30.1-85.4,34.1v21.1c37.3,4.8,67.9,17,91.9,36.9
		C486.2,388,498.3,404.3,506.2,422.9z"/>
	<rect x="63.8" y="35.6" class="st0" width="215.9" height="17.2"/>
</g>
</svg>
