<?xml version="1.0" encoding="utf-8"?>
<!-- Generator: Adobe Illustrator 23.1.0, SVG Export Plug-In . SVG Version: 6.00 Build 0)  -->
<svg version="1.1" id="Capa_1" xmlns="http://www.w3.org/2000/svg" xmlns:xlink="http://www.w3.org/1999/xlink" x="0px" y="0px"
	 viewBox="0 0 60 60" style="enable-background:new 0 0 60 60;" xml:space="preserve">
<style type="text/css">
	.st0{fill:#3CC094;}
</style>
<g>
	<path class="st0" d="M52.2,39.9l-5.6,8l-3.9-3.2c-0.4-0.4-1.1-0.3-1.4,0.1c-0.4,0.4-0.3,1.1,0.1,1.4l4.8,3.9
		c0.2,0.1,0.4,0.2,0.6,0.2c0,0,0.1,0,0.1,0c0.3,0,0.5-0.2,0.7-0.4l6.2-8.9c0.3-0.5,0.2-1.1-0.3-1.4C53.1,39.4,52.5,39.5,52.2,39.9z"
		/>
	<path class="st0" d="M47,32.5c-0.7,0-1.4,0.1-2.1,0.2c1.2-1.7,2.1-3.6,2.8-5.6c1.4-0.6,2.3-2,2.3-3.6v-4c0-1-0.4-1.9-1-2.6v-5.3
		c0.1-0.6,0.3-3.8-2.1-6.5c-2.1-2.3-5.4-3.5-9.9-3.5S29.1,2.7,27.1,5c-1.4,1.6-1.9,3.5-2.1,4.8c-1.7-0.9-3.7-1.3-6-1.3
		c-10.4,0-11,8.9-11,9v4.6c-0.6,0.7-1,1.5-1,2.3v3.5c0,1.1,0.5,2.1,1.3,2.8c0.8,3.1,2.9,5.5,3.6,6.3v2.7c0,0.8-0.4,1.5-1.2,1.9
		l-6.7,4.2c-2.5,1.4-4.1,4.1-4.1,7v3.8h14h2h24.1c2,1.3,4.4,2,6.9,2c7.2,0,13-5.8,13-13S54.2,32.5,47,32.5z M14,52.3v2.2H2v-1.8
		c0-2.2,1.2-4.2,3.1-5.2l6.7-4.2c1.3-0.7,2.2-2.1,2.2-3.6v-3.6l-0.3-0.3c0,0-2.7-2.5-3.5-6l-0.1-0.4l-0.3-0.2
		C9.3,28.9,9,28.4,9,27.9v-3.5c0-0.4,0.2-0.8,0.7-1.2l0.3-0.3l0-5.4c0-0.3,0.5-7.1,9-7.1c2.4,0,4.4,0.6,6,1.6v4.7
		c-0.6,0.7-1,1.7-1,2.6v4c0,0.3,0,0.6,0.1,0.9c0,0.1,0.1,0.2,0.1,0.3c0.1,0.2,0.1,0.3,0.2,0.5c0,0,0,0,0,0c0.3,0.5,0.6,1,1.1,1.4
		c0,0,0,0,0,0.1c0.1,0.2,0.1,0.5,0.2,0.7l0.1,0.3c0,0,0,0.1,0,0.1c0,0.1,0.1,0.2,0.1,0.3c0.1,0.2,0.1,0.4,0.2,0.6
		c0,0.1,0.1,0.2,0.1,0.2c0.1,0.2,0.2,0.4,0.3,0.6c0,0,0,0.1,0.1,0.1l0.1,0.1c0,0.1,0.1,0.1,0.1,0.2c0.1,0.2,0.2,0.4,0.3,0.6
		c0,0,0,0.1,0,0.1c0.1,0.1,0.1,0.2,0.2,0.4c0.1,0.2,0.2,0.4,0.3,0.6c0.1,0.1,0.1,0.2,0.2,0.3c0.1,0.2,0.3,0.5,0.4,0.7
		c0,0,0.1,0.1,0.1,0.1c0.2,0.4,0.5,0.7,0.6,0.9c0,0.1,0.1,0.1,0.1,0.2c0,0,0.1,0.1,0.1,0.1v3.3c0,1-0.5,1.9-1.4,2.3L25,40.9
		l-0.6,0.4l-5.6,3.1C15.8,45.9,14,49,14,52.3z M16,54.5v-2.2c0-2.6,1.4-4.9,3.7-6.2l8.9-4.9c1.5-0.8,2.4-2.4,2.4-4.1v-4v0l-0.2-0.2
		l0,0c0,0-0.1-0.1-0.2-0.2c0,0,0,0,0,0c-0.1-0.1-0.1-0.2-0.2-0.3c0,0,0,0,0,0c-0.1-0.2-0.3-0.5-0.5-0.8c0,0,0,0,0,0
		c-0.1-0.2-0.2-0.3-0.3-0.5c0,0,0,0,0,0c-0.2-0.4-0.5-0.8-0.7-1.3l0,0c-0.1-0.3-0.3-0.5-0.4-0.8l0,0c0,0,0-0.1-0.1-0.1l0,0
		c-0.1-0.1-0.1-0.3-0.2-0.4c0,0,0-0.1-0.1-0.1C28.1,28.1,28,28,28,27.9c-0.1-0.3-0.2-0.6-0.3-0.8l-0.1-0.2c0,0,0,0,0-0.1
		c-0.1-0.3-0.2-0.6-0.3-1l-0.1-0.4l-0.3-0.2c-0.6-0.4-0.9-1-0.9-1.7v-4c0-0.6,0.2-1.1,0.7-1.5l0.3-0.3v-6.2v-0.4l0,0
		c0-0.7,0-2.9,1.6-4.8c1.7-1.9,4.5-2.8,8.4-2.8c3.9,0,6.7,1,8.4,2.8c1.9,2.2,1.6,5,1.6,5l0,6.4l0.3,0.3c0.4,0.4,0.7,0.9,0.7,1.5v4
		c0,0.9-0.6,1.6-1.4,1.9l-0.5,0.2L45.9,26c-0.7,2.1-1.6,4-2.8,5.7c-0.3,0.4-0.6,0.8-0.8,1.1L42,33.1v0.4c-0.3,0.1-0.5,0.2-0.7,0.3
		c-0.1,0-0.1,0.1-0.2,0.1c-0.2,0.1-0.4,0.2-0.6,0.4c-0.1,0.1-0.2,0.1-0.3,0.2c-0.2,0.1-0.4,0.2-0.6,0.4c-0.1,0.1-0.2,0.2-0.4,0.3
		c-0.3,0.2-0.6,0.4-0.8,0.7c-0.1,0.1-0.3,0.2-0.4,0.3c-0.1,0.1-0.3,0.3-0.4,0.4c-0.1,0.1-0.2,0.2-0.3,0.4c-0.1,0.2-0.3,0.3-0.4,0.5
		c-0.1,0.1-0.2,0.3-0.3,0.4c-0.2,0.3-0.4,0.6-0.6,0.9c-0.1,0.1-0.2,0.3-0.3,0.4c-0.1,0.2-0.2,0.4-0.3,0.5c-0.1,0.1-0.1,0.3-0.2,0.4
		c-0.1,0.2-0.2,0.4-0.2,0.5c-0.1,0.2-0.1,0.4-0.2,0.6c-0.1,0.2-0.1,0.4-0.2,0.7c-0.1,0.3-0.2,0.6-0.2,0.8c0,0.1-0.1,0.3-0.1,0.4
		c0,0.3-0.1,0.5-0.1,0.8c0,0.1,0,0.3,0,0.4c0,0.4-0.1,0.8-0.1,1.2c0,0.4,0,0.9,0.1,1.3c0,0.2,0,0.3,0.1,0.5c0,0.3,0.1,0.5,0.1,0.8
		c0,0.2,0.1,0.3,0.1,0.5c0.1,0.2,0.1,0.5,0.2,0.7c0,0.2,0.1,0.3,0.2,0.5c0.1,0.2,0.2,0.5,0.3,0.7c0.1,0.1,0.1,0.3,0.2,0.4
		c0.1,0.3,0.2,0.5,0.4,0.8c0.1,0.1,0.1,0.2,0.2,0.3c0.1,0.3,0.3,0.5,0.5,0.8c0.1,0.1,0.1,0.2,0.2,0.3c0.2,0.3,0.4,0.5,0.6,0.7
		c0.1,0.1,0.2,0.2,0.2,0.3c0.2,0.2,0.3,0.4,0.5,0.5L16,54.5L16,54.5z M47,56.5c-2.3,0-4.4-0.7-6.1-1.9c-0.3-0.2-0.7-0.5-1-0.7
		c-0.1-0.1-0.2-0.2-0.3-0.3c-0.2-0.2-0.4-0.4-0.6-0.6c-0.1-0.1-0.2-0.2-0.3-0.4c-0.2-0.2-0.3-0.4-0.5-0.6c-0.1-0.1-0.2-0.3-0.3-0.4
		c-0.2-0.3-0.4-0.7-0.6-1c0-0.1-0.1-0.2-0.1-0.2c-0.1-0.3-0.3-0.6-0.4-0.9c-0.1-0.1-0.1-0.3-0.1-0.4c-0.1-0.3-0.2-0.5-0.3-0.8
		c0-0.1-0.1-0.3-0.1-0.4c-0.1-0.3-0.1-0.6-0.2-0.9c0-0.1,0-0.2-0.1-0.4c0-0.4-0.1-0.8-0.1-1.3c0-0.3,0-0.7,0.1-1c0-0.1,0-0.2,0-0.4
		c0-0.2,0.1-0.4,0.1-0.6c0-0.1,0.1-0.3,0.1-0.4c0-0.2,0.1-0.4,0.1-0.5c0-0.1,0.1-0.3,0.1-0.4c0.1-0.3,0.2-0.5,0.3-0.8
		c0.1-0.2,0.2-0.3,0.2-0.5c0.1-0.1,0.1-0.2,0.2-0.3c0.1-0.2,0.2-0.3,0.3-0.5c0.1-0.1,0.1-0.2,0.2-0.3c0.1-0.2,0.2-0.3,0.3-0.5
		c0.1-0.1,0.1-0.2,0.2-0.2c0.2-0.3,0.5-0.6,0.8-0.9c0.1-0.1,0.1-0.1,0.2-0.2c0.1-0.1,0.3-0.3,0.4-0.4c0.1-0.1,0.2-0.2,0.3-0.2
		c0.2-0.1,0.3-0.3,0.5-0.4c0.1-0.1,0.2-0.1,0.2-0.2c0.2-0.1,0.3-0.3,0.5-0.4c0,0,0,0,0,0c0.7-0.4,1.4-0.8,2.2-1.1
		c0.1,0,0.1,0,0.2-0.1l0.3-0.1c1-0.3,2.1-0.5,3.2-0.5c6.1,0,11,4.9,11,11S53.1,56.5,47,56.5z"/>
</g>
</svg>
